<svg width="24" height="24" viewBox="0 0 24 24" fill="none" xmlns="http://www.w3.org/2000/svg">
<path d="M4.00001 15V19M12 8.99995V19M22 22H2.00001M20 13V19M5.60001 8.79995C5.44242 8.58984 5.24499 8.41282 5.019 8.279C4.793 8.14519 4.54285 8.0572 4.28285 8.02005C4.02285 7.98291 3.75807 7.99734 3.50365 8.06253C3.24922 8.12771 3.01012 8.24237 2.80001 8.39995C2.58989 8.55754 2.41287 8.75497 2.27906 8.98097C2.14524 9.20696 2.05725 9.45711 2.02011 9.71711C1.94509 10.2422 2.08175 10.7756 2.40001 11.2C2.71827 11.6243 3.19206 11.9048 3.71717 11.9799C4.24227 12.0549 4.77566 11.9182 5.20001 11.6C5.62435 11.2817 5.90489 10.8079 5.97991 10.2828C6.05492 9.75769 5.91827 9.2243 5.60001 8.79995ZM5.60001 8.79995L10.4 5.19995M10.4 5.19995C10.6045 5.47297 10.8754 5.68916 11.1869 5.82798C11.4985 5.96679 11.8404 6.02362 12.1801 5.99305C12.5198 5.96249 12.8461 5.84555 13.1278 5.65335C13.4096 5.46115 13.6376 5.20008 13.79 4.89495M10.4 5.19995C10.1866 4.91494 10.0531 4.57812 10.0134 4.22428C9.97363 3.87043 10.0291 3.51239 10.174 3.18715C10.3189 2.8619 10.548 2.58124 10.8377 2.37415C11.1273 2.16706 11.467 2.04105 11.8217 2.00915C12.1763 1.97724 12.533 2.04059 12.855 2.19265C13.1769 2.34471 13.4525 2.57997 13.6531 2.87413C13.8538 3.16829 13.9722 3.51068 13.9963 3.86593C14.0204 4.22119 13.9491 4.57642 13.79 4.89495M13.79 4.89495L18.21 7.10495C18.0925 7.33989 18.0224 7.59567 18.0037 7.8577C17.985 8.11973 18.0181 8.38287 18.1011 8.63211C18.2688 9.13545 18.6295 9.55158 19.104 9.78895C19.5785 10.0263 20.1278 10.0655 20.6312 9.89783C21.1345 9.73017 21.5506 9.36943 21.788 8.89495C22.0205 8.42119 22.0563 7.87474 21.8876 7.37468C21.719 6.87463 21.3595 6.4615 20.8876 6.22533C20.4156 5.98916 19.8695 5.9491 19.3681 6.11386C18.8668 6.27863 18.4508 6.63487 18.211 7.10495" stroke="#DB1F26" stroke-width="1.5" stroke-linecap="round" stroke-linejoin="round"/>
</svg>
