<svg width="24" height="24" viewBox="0 0 24 24" fill="none" xmlns="http://www.w3.org/2000/svg">
<path d="M7 7H16.75C18.857 7 19.91 7 20.667 7.506C20.9943 7.72474 21.2753 8.00575 21.494 8.333C22 9.09 22 10.143 22 12.25C22 15.761 22 17.517 21.157 18.778C20.7921 19.3242 20.3232 19.7931 19.777 20.158C18.518 21 16.762 21 13.25 21H12C7.286 21 4.929 21 3.464 19.535C2 18.072 2 15.715 2 11V7.944C2 6.128 2 5.22 2.38 4.538C2.65114 4.05208 3.05208 3.65114 3.538 3.38C4.22 3 5.128 3 6.944 3C8.108 3 8.69 3 9.2 3.191C10.363 3.627 10.843 4.684 11.368 5.733L12 7" stroke="#DB1F26" stroke-width="1.5" stroke-linecap="round" stroke-linejoin="round"/>
</svg>
