<svg width="24" height="24" viewBox="0 0 24 24" fill="none" xmlns="http://www.w3.org/2000/svg">
<path d="M11 22H10.727C7.467 22 5.835 22 4.703 21.202C4.38085 20.9761 4.0929 20.705 3.848 20.397C3 19.331 3 17.797 3 14.727V12.182C3 9.219 3 7.737 3.469 6.554C4.223 4.651 5.817 3.151 7.839 2.441C9.095 2 10.668 2 13.818 2C15.616 2 16.516 2 17.234 2.252C18.389 2.658 19.3 3.515 19.731 4.602C20 5.278 20 6.125 20 7.818V11" stroke="#DB1F26" stroke-width="1.5" stroke-linecap="round" stroke-linejoin="round"/>
<path d="M3 12C3 11.116 3.35115 10.2683 3.97621 9.64321C4.60127 9.01815 5.44903 8.667 6.333 8.667C6.999 8.667 7.784 8.783 8.431 8.61C8.71371 8.53392 8.97145 8.38485 9.17838 8.17774C9.38531 7.97064 9.53416 7.71277 9.61 7.43C9.783 6.783 9.667 5.998 9.667 5.332C9.66726 4.44821 10.0185 3.6007 10.6436 2.97586C11.2686 2.35102 12.1162 2 13 2M16.5 13C15.074 13 14.15 13.909 13.058 14.24C12.614 14.374 12.392 14.442 12.302 14.537C12.212 14.632 12.186 14.77 12.133 15.047C11.57 18.016 12.801 20.76 15.738 21.827C16.053 21.943 16.211 22 16.501 22C16.791 22 16.948 21.943 17.264 21.828C20.2 20.76 21.43 18.016 20.867 15.048C20.814 14.77 20.787 14.631 20.698 14.537C20.609 14.443 20.386 14.374 19.942 14.24C18.849 13.909 17.925 13 16.5 13Z" stroke="#DB1F26" stroke-width="1.5" stroke-linecap="round" stroke-linejoin="round"/>
</svg>
